<mxfile host="app.diagrams.net" modified="2021-07-05T07:04:31.923Z" agent="5.0 (Windows NT 10.0; WOW64) AppleWebKit/537.36 (KHTML, like Gecko) Chrome/91.0.4472.124 Safari/537.36" etag="EbPxbKVwn5gSe-7Z3hy-" version="14.8.3" type="github">
  <diagram id="oBHQCdkgYUHfzeL6AgQ3" name="Page-1">
    <mxGraphModel dx="1422" dy="764" grid="1" gridSize="10" guides="1" tooltips="1" connect="1" arrows="1" fold="1" page="1" pageScale="1" pageWidth="850" pageHeight="1100" math="0" shadow="0">
      <root>
        <mxCell id="0" />
        <mxCell id="1" parent="0" />
        <mxCell id="b5atN9JFqp52hg4PsR0E-2" value="" style="endArrow=none;html=1;" edge="1" parent="1">
          <mxGeometry width="50" height="50" relative="1" as="geometry">
            <mxPoint x="205" y="100" as="sourcePoint" />
            <mxPoint x="285" y="100" as="targetPoint" />
          </mxGeometry>
        </mxCell>
        <mxCell id="b5atN9JFqp52hg4PsR0E-3" value="" style="endArrow=none;html=1;" edge="1" parent="1">
          <mxGeometry width="50" height="50" relative="1" as="geometry">
            <mxPoint x="245" y="140" as="sourcePoint" />
            <mxPoint x="245" y="100" as="targetPoint" />
          </mxGeometry>
        </mxCell>
        <mxCell id="b5atN9JFqp52hg4PsR0E-4" value="" style="ellipse;whiteSpace=wrap;html=1;aspect=fixed;" vertex="1" parent="1">
          <mxGeometry x="215" y="140" width="60" height="60" as="geometry" />
        </mxCell>
        <mxCell id="b5atN9JFqp52hg4PsR0E-5" value="" style="endArrow=none;html=1;" edge="1" parent="1">
          <mxGeometry width="50" height="50" relative="1" as="geometry">
            <mxPoint x="245" y="250" as="sourcePoint" />
            <mxPoint x="245" y="200" as="targetPoint" />
          </mxGeometry>
        </mxCell>
        <mxCell id="b5atN9JFqp52hg4PsR0E-6" value="" style="ellipse;whiteSpace=wrap;html=1;aspect=fixed;" vertex="1" parent="1">
          <mxGeometry x="215" y="250" width="60" height="60" as="geometry" />
        </mxCell>
        <mxCell id="b5atN9JFqp52hg4PsR0E-7" value="" style="endArrow=none;html=1;" edge="1" parent="1">
          <mxGeometry width="50" height="50" relative="1" as="geometry">
            <mxPoint x="245" y="340" as="sourcePoint" />
            <mxPoint x="245" y="310" as="targetPoint" />
          </mxGeometry>
        </mxCell>
        <mxCell id="b5atN9JFqp52hg4PsR0E-8" value="" style="endArrow=none;html=1;" edge="1" parent="1">
          <mxGeometry width="50" height="50" relative="1" as="geometry">
            <mxPoint x="185" y="340" as="sourcePoint" />
            <mxPoint x="305" y="340" as="targetPoint" />
          </mxGeometry>
        </mxCell>
        <mxCell id="b5atN9JFqp52hg4PsR0E-9" value="" style="endArrow=none;html=1;" edge="1" parent="1">
          <mxGeometry width="50" height="50" relative="1" as="geometry">
            <mxPoint x="185" y="390" as="sourcePoint" />
            <mxPoint x="185" y="340" as="targetPoint" />
          </mxGeometry>
        </mxCell>
        <mxCell id="b5atN9JFqp52hg4PsR0E-10" value="" style="endArrow=none;html=1;" edge="1" parent="1">
          <mxGeometry width="50" height="50" relative="1" as="geometry">
            <mxPoint x="305" y="390" as="sourcePoint" />
            <mxPoint x="305" y="340" as="targetPoint" />
          </mxGeometry>
        </mxCell>
        <mxCell id="b5atN9JFqp52hg4PsR0E-11" value="" style="ellipse;whiteSpace=wrap;html=1;aspect=fixed;" vertex="1" parent="1">
          <mxGeometry x="275" y="390" width="60" height="60" as="geometry" />
        </mxCell>
        <mxCell id="b5atN9JFqp52hg4PsR0E-12" value="" style="ellipse;whiteSpace=wrap;html=1;aspect=fixed;" vertex="1" parent="1">
          <mxGeometry x="155" y="390" width="60" height="60" as="geometry" />
        </mxCell>
        <mxCell id="b5atN9JFqp52hg4PsR0E-13" value="" style="endArrow=none;html=1;" edge="1" parent="1">
          <mxGeometry width="50" height="50" relative="1" as="geometry">
            <mxPoint x="215" y="220" as="sourcePoint" />
            <mxPoint x="275" y="220" as="targetPoint" />
          </mxGeometry>
        </mxCell>
        <mxCell id="b5atN9JFqp52hg4PsR0E-14" value="" style="endArrow=none;html=1;" edge="1" parent="1">
          <mxGeometry width="50" height="50" relative="1" as="geometry">
            <mxPoint x="275" y="370" as="sourcePoint" />
            <mxPoint x="335" y="370" as="targetPoint" />
          </mxGeometry>
        </mxCell>
        <mxCell id="b5atN9JFqp52hg4PsR0E-15" value="" style="endArrow=none;html=1;" edge="1" parent="1">
          <mxGeometry width="50" height="50" relative="1" as="geometry">
            <mxPoint x="155" y="370" as="sourcePoint" />
            <mxPoint x="215" y="370" as="targetPoint" />
          </mxGeometry>
        </mxCell>
        <mxCell id="b5atN9JFqp52hg4PsR0E-16" value="Estat Inici" style="text;html=1;strokeColor=none;fillColor=none;align=center;verticalAlign=middle;whiteSpace=wrap;rounded=0;" vertex="1" parent="1">
          <mxGeometry x="285" y="160" width="70" height="20" as="geometry" />
        </mxCell>
        <mxCell id="b5atN9JFqp52hg4PsR0E-17" value="F_scan&amp;nbsp; &amp;nbsp;EM&amp;nbsp; &amp;nbsp; &amp;nbsp;P1" style="text;html=1;strokeColor=none;fillColor=none;align=center;verticalAlign=middle;whiteSpace=wrap;rounded=0;" vertex="1" parent="1">
          <mxGeometry x="85" y="210" width="110" height="20" as="geometry" />
        </mxCell>
        <mxCell id="b5atN9JFqp52hg4PsR0E-19" value="EM = Estat màquina&lt;br&gt;P1 = Polsador&lt;br&gt;ctt = parametre comptador&lt;br&gt;peces = variable remananet&amp;nbsp;" style="rounded=0;whiteSpace=wrap;html=1;" vertex="1" parent="1">
          <mxGeometry x="10" y="10" width="170" height="60" as="geometry" />
        </mxCell>
        <mxCell id="b5atN9JFqp52hg4PsR0E-20" value="Estat Espera" style="text;html=1;strokeColor=none;fillColor=none;align=center;verticalAlign=middle;whiteSpace=wrap;rounded=0;" vertex="1" parent="1">
          <mxGeometry x="275" y="270" width="110" height="20" as="geometry" />
        </mxCell>
        <mxCell id="b5atN9JFqp52hg4PsR0E-26" value="" style="edgeStyle=orthogonalEdgeStyle;rounded=0;orthogonalLoop=1;jettySize=auto;html=1;" edge="1" parent="1" source="b5atN9JFqp52hg4PsR0E-21" target="b5atN9JFqp52hg4PsR0E-12">
          <mxGeometry relative="1" as="geometry" />
        </mxCell>
        <mxCell id="b5atN9JFqp52hg4PsR0E-21" value="P1&amp;nbsp;&amp;nbsp;" style="text;html=1;strokeColor=none;fillColor=none;align=center;verticalAlign=middle;whiteSpace=wrap;rounded=0;" vertex="1" parent="1">
          <mxGeometry x="115" y="360" width="30" height="20" as="geometry" />
        </mxCell>
        <mxCell id="b5atN9JFqp52hg4PsR0E-24" value="S1" style="text;html=1;strokeColor=none;fillColor=none;align=center;verticalAlign=middle;whiteSpace=wrap;rounded=0;" vertex="1" parent="1">
          <mxGeometry x="345" y="360" width="40" height="20" as="geometry" />
        </mxCell>
        <mxCell id="b5atN9JFqp52hg4PsR0E-28" value="Interrupció" style="text;html=1;strokeColor=none;fillColor=none;align=center;verticalAlign=middle;whiteSpace=wrap;rounded=0;" vertex="1" parent="1">
          <mxGeometry x="85" y="410" width="60" height="20" as="geometry" />
        </mxCell>
        <mxCell id="b5atN9JFqp52hg4PsR0E-29" value="" style="endArrow=none;html=1;" edge="1" parent="1">
          <mxGeometry width="50" height="50" relative="1" as="geometry">
            <mxPoint x="425" y="170" as="sourcePoint" />
            <mxPoint x="505" y="170" as="targetPoint" />
          </mxGeometry>
        </mxCell>
        <mxCell id="b5atN9JFqp52hg4PsR0E-30" value="" style="endArrow=none;html=1;" edge="1" parent="1">
          <mxGeometry width="50" height="50" relative="1" as="geometry">
            <mxPoint x="465" y="210" as="sourcePoint" />
            <mxPoint x="465" y="170" as="targetPoint" />
          </mxGeometry>
        </mxCell>
        <mxCell id="b5atN9JFqp52hg4PsR0E-31" value="" style="ellipse;whiteSpace=wrap;html=1;aspect=fixed;" vertex="1" parent="1">
          <mxGeometry x="435" y="210" width="60" height="60" as="geometry" />
        </mxCell>
        <mxCell id="b5atN9JFqp52hg4PsR0E-32" value="" style="endArrow=none;html=1;" edge="1" parent="1">
          <mxGeometry width="50" height="50" relative="1" as="geometry">
            <mxPoint x="465" y="320" as="sourcePoint" />
            <mxPoint x="465" y="270" as="targetPoint" />
          </mxGeometry>
        </mxCell>
        <mxCell id="b5atN9JFqp52hg4PsR0E-33" value="" style="ellipse;whiteSpace=wrap;html=1;aspect=fixed;" vertex="1" parent="1">
          <mxGeometry x="435" y="320" width="60" height="60" as="geometry" />
        </mxCell>
        <mxCell id="b5atN9JFqp52hg4PsR0E-34" value="" style="endArrow=none;html=1;" edge="1" parent="1">
          <mxGeometry width="50" height="50" relative="1" as="geometry">
            <mxPoint x="435" y="290" as="sourcePoint" />
            <mxPoint x="495" y="290" as="targetPoint" />
          </mxGeometry>
        </mxCell>
        <mxCell id="b5atN9JFqp52hg4PsR0E-35" value="Estat Espera" style="text;html=1;strokeColor=none;fillColor=none;align=center;verticalAlign=middle;whiteSpace=wrap;rounded=0;" vertex="1" parent="1">
          <mxGeometry x="495" y="230" width="110" height="20" as="geometry" />
        </mxCell>
        <mxCell id="b5atN9JFqp52hg4PsR0E-36" value="ctt &amp;gt; 1" style="text;html=1;strokeColor=none;fillColor=none;align=center;verticalAlign=middle;whiteSpace=wrap;rounded=0;" vertex="1" parent="1">
          <mxGeometry x="505" y="280" width="40" height="20" as="geometry" />
        </mxCell>
        <mxCell id="b5atN9JFqp52hg4PsR0E-37" value="Peces += ctt -2" style="text;html=1;strokeColor=none;fillColor=none;align=center;verticalAlign=middle;whiteSpace=wrap;rounded=0;" vertex="1" parent="1">
          <mxGeometry x="495" y="340" width="110" height="20" as="geometry" />
        </mxCell>
        <mxCell id="b5atN9JFqp52hg4PsR0E-38" value="Interrupció" style="text;html=1;strokeColor=none;fillColor=none;align=center;verticalAlign=middle;whiteSpace=wrap;rounded=0;" vertex="1" parent="1">
          <mxGeometry x="435" y="150" width="60" height="20" as="geometry" />
        </mxCell>
        <mxCell id="b5atN9JFqp52hg4PsR0E-39" value="TA02" style="text;html=1;strokeColor=none;fillColor=none;align=center;verticalAlign=middle;whiteSpace=wrap;rounded=0;" vertex="1" parent="1">
          <mxGeometry x="225" y="80" width="40" height="20" as="geometry" />
        </mxCell>
        <mxCell id="b5atN9JFqp52hg4PsR0E-40" value="ctt +=1" style="text;html=1;strokeColor=none;fillColor=none;align=center;verticalAlign=middle;whiteSpace=wrap;rounded=0;" vertex="1" parent="1">
          <mxGeometry x="345" y="410" width="40" height="20" as="geometry" />
        </mxCell>
        <mxCell id="b5atN9JFqp52hg4PsR0E-41" value="reset comptador" style="text;html=1;strokeColor=none;fillColor=none;align=center;verticalAlign=middle;whiteSpace=wrap;rounded=0;" vertex="1" parent="1">
          <mxGeometry x="80" y="430" width="70" height="20" as="geometry" />
        </mxCell>
      </root>
    </mxGraphModel>
  </diagram>
</mxfile>
